# xmcd
#
# Track frame offsets:
#	150
#	9240
#	18394
#	29577
#	38997
#	50445
#	61707
#	71332
#	82441
#	94788
#	105662
#	115303
#	126563
#	137073
#	149878
#	160623
#	172298
#	185416
#	195932
#	206400
#	215991
#	224996
#	234518
#	244625
#
# Disc length: 3383 seconds
#
# Revision: 1
# Processed by: cddbd v1.5.2PL0 Copyright (c) Steve Scherf et al.
# Submitted via: audiograbber 1.83.01
#
DISCID=710d3518
DTITLE=ferlin husky - ferlins favorites (1959) gone (1960)
DYEAR=2013
DGENRE=Country
TTITLE0=alabama jubilee
TTITLE1=the gods were angry with me
TTITLE2=deep water
TTITLE3=so used to loving you
TTITLE4=blues eyes cryin' in the rain
TTITLE5=detour
TTITLE6=sioux city sue
TTITLE7=looking back
TTITLE8=keeper of my heart
TTITLE9=till you come back again
TTITLE10=still water
TTITLE11=my home in san antoine
TTITLE12=gone
TTITLE13=missing persons
TTITLE14=i feel that old heartache
TTITLE15=make me live
TTITLE16=wrong
TTITLE17=a fallen star
TTITLE18=prize possession
TTITLE19=this moment of love
TTITLE20=my reason for living
TTITLE21=i will
TTITLE22=all the time
TTITLE23=i saw god
EXTD=
EXTT0=
EXTT1=
EXTT2=
EXTT3=
EXTT4=
EXTT5=
EXTT6=
EXTT7=
EXTT8=
EXTT9=
EXTT10=
EXTT11=
EXTT12=
EXTT13=
EXTT14=
EXTT15=
EXTT16=
EXTT17=
EXTT18=
EXTT19=
EXTT20=
EXTT21=
EXTT22=
EXTT23=
PLAYORDER=
